<svg width="1920" height="1092" viewBox="0 0 1920 1092" fill="none" xmlns="http://www.w3.org/2000/svg">
<rect y="-16" width="1920" height="1097" fill="#7D142E"/>
<mask id="mask0_3_6" style="mask-type:luminance" maskUnits="userSpaceOnUse" x="-20" y="-164" width="1938" height="1495">
<path d="M1917.3 -163.729H-19.208V1330.02H1917.3V-163.729Z" fill="white"/>
</mask>
<g mask="url(#mask0_3_6)">
<path d="M1563.41 1035.26V634.835L1641.35 599.019V764.477L1679.65 755.923V1038.87L1563.41 1035.26Z" fill="#E2D4BF"/>
<path d="M1641.35 1038.04L1754.44 1039.56V656.471L1641.35 599.019" fill="#FCF2D6"/>
<path d="M-13.8848 342.895L231.129 383.546V601.466L350.551 584.473L558.612 583.105V958.141L578.265 1137.84L1159.77 1228.45L1470.32 912.692L1474.45 568.097L2368.5 561.335V1577.86L-13.8848 1534.24V342.895Z" fill="#751231"/>
<path d="M1475.37 567.866L1506.52 575.283V953.189L1475.37 922.325V567.866Z" stroke="#020203" stroke-miterlimit="10"/>
<path d="M1506.85 575.36L1542.47 583.838V977.657L1506.85 943.113V575.36Z" stroke="#020203" stroke-miterlimit="10"/>
<path d="M506.096 919.223L-66.3242 1481.35V1587.41L506.096 962.187V919.223Z" stroke="#020203" stroke-miterlimit="10"/>
<path d="M1845.92 498.508V501.706H1844.34V498.431L1844.76 498.45L1845.92 498.508Z" stroke="#020203" stroke-miterlimit="10"/>
<path d="M506.096 961.532L-66.3242 1585.78V1691.84L506.096 1004.5V961.532Z" stroke="#020203" stroke-miterlimit="10"/>
<path d="M1844.76 501.706V498.45" stroke="#020203" stroke-miterlimit="10"/>
<path d="M1475.26 737.601L2082.51 1100.98V1230.64L1475.26 794.243V737.601Z" stroke="#020203" stroke-miterlimit="10"/>
<path d="M1475.26 680.997L2082.51 971.473V1101.12L1475.26 737.659V680.997Z" stroke="#020203" stroke-miterlimit="10"/>
<path d="M1475.76 624.605L2082.51 841.946V971.608L1475.76 681.305V624.605Z" stroke="#020203" stroke-miterlimit="10"/>
<path d="M2082.51 712.439L1475.26 567.827V850.828L2082.51 1360.15V712.439Z" stroke="#020203" stroke-miterlimit="10"/>
<path d="M1843.18 655.45L1947.35 680.246V1246.79L1843.18 1159.43V655.45Z" stroke="#020203" stroke-miterlimit="10"/>
<path d="M1690.18 619.018L1758.28 635.24V1088.23L1690.18 1031.1V619.018Z" stroke="#020203" stroke-miterlimit="10"/>
<path d="M1632.86 605.377L1689.58 618.883V1030.6L1632.86 983.033V605.377Z" stroke="#020203" stroke-miterlimit="10"/>
<path d="M1584.38 593.817L1632.36 605.242V982.609L1584.38 942.362V593.817Z" stroke="#020203" stroke-miterlimit="10"/>
<path d="M1542.83 583.934L1583.95 593.721V941.996L1542.83 907.509V583.934Z" stroke="#020203" stroke-miterlimit="10"/>
<path d="M3071.99 691.921H1996.32L1475.37 567.866H1986.29L3071.99 691.921Z" stroke="#020203" stroke-miterlimit="10"/>
<path d="M2577.45 635.413H1759.02L1845.92 656.105H2758.57L2577.45 635.413Z" stroke="#020203" stroke-miterlimit="10"/>
<path d="M2430.97 618.671H1688.74L1759.46 635.509H2578.38L2430.97 618.671Z" stroke="#020203" stroke-miterlimit="10"/>
<path d="M2309.47 604.78H1630.43L1689.1 618.767H2431.74L2309.47 604.78Z" stroke="#020203" stroke-miterlimit="10"/>
<path d="M2207.02 593.085H1581.27L1630.74 604.857H2310.1L2207.02 593.085Z" stroke="#020203" stroke-miterlimit="10"/>
<path d="M2119.5 583.086H1539.29L1581.54 593.143H2207.56L2119.5 583.086Z" stroke="#020203" stroke-miterlimit="10"/>
<path d="M2043.84 574.436H1502.97L1539.5 583.144H2119.96L2043.84 574.436Z" stroke="#020203" stroke-miterlimit="10"/>
<path d="M2146.67 680.515H1950.11L1476.95 568.039H1575.2L2146.67 680.515Z" stroke="#020203" stroke-miterlimit="10"/>
<path d="M2345.4 680.515H2148.85L1576.28 568.039H1674.52L2345.4 680.515Z" stroke="#020203" stroke-miterlimit="10"/>
<path d="M2544.14 680.515H2347.58L1675.62 568.039H1773.87L2544.14 680.515Z" stroke="#020203" stroke-miterlimit="10"/>
<path d="M2742.87 680.515H2546.32L1774.97 568.039H1873.21L2742.87 680.515Z" stroke="#020203" stroke-miterlimit="10"/>
<path d="M2941.62 680.515H2745.05L1874.29 568.039H1972.54L2941.62 680.515Z" stroke="#020203" stroke-miterlimit="10"/>
<path d="M2071.3 296.117V653.735L1974.5 635.798L1973.98 635.702L1970.43 635.047L1884.17 619.056H1884.11L1882.78 618.806L1882.22 618.69L1809.24 605.165L1809.1 605.146H1809.06L1808.79 605.088H1808.76L1747.06 593.644L1745.88 593.432L1745.57 593.374L1714.39 587.594V457.721L1747.06 457.798L1808.78 457.952L1809.24 457.972L1843.18 458.049V330.275L1882.22 324.438L1882.78 324.341L1970.43 311.221L2071.3 296.117Z" fill="#751231" stroke="#020203" stroke-miterlimit="10"/>
<path d="M1882.76 324.052L1970.43 310.932V635.509L1882.76 619.191V324.052Z" stroke="#020203" stroke-miterlimit="10"/>
<path d="M1882.22 324.149V619.095L1880.46 618.767L1879.94 618.671L1809.24 605.512V457.683L1843.18 457.76V329.986L1882.22 324.149Z" fill="#751231" stroke="#020203" stroke-miterlimit="10"/>
<path d="M1808.78 457.663V605.416L1805.77 604.857L1805.46 604.799L1747.06 593.933V457.509L1808.78 457.663Z" fill="#751231" stroke="#020203" stroke-miterlimit="10"/>
<path d="M2071.3 611.253L1714.39 559.215V587.306L2071.3 653.466V611.253Z" stroke="#020203" stroke-miterlimit="10"/>
<path d="M2071.3 569.561L1714.39 531.453V559.543L2071.3 611.754V569.561Z" stroke="#020203" stroke-miterlimit="10"/>
<path d="M2071.3 527.85L1714.39 503.71V531.8L2071.3 570.062V527.85Z" stroke="#020203" stroke-miterlimit="10"/>
<path d="M2071.3 486.139L1714.39 475.947V504.037L2071.3 528.351V486.139Z" stroke="#020203" stroke-miterlimit="10"/>
<path d="M1843.18 447.24V457.76L1809.24 457.683L1808.78 457.663L1747.06 457.509L1714.39 457.432V475.947V476.275L1747.06 477.219L1808.78 479.03H1809.24L1882.22 481.149L1882.78 481.168L1970.43 483.731L2071.3 486.659V486.158V444.948V444.447L1970.43 445.506L1882.78 446.412L1882.22 446.431L1843.18 446.836" stroke="#020203" stroke-miterlimit="10"/>
<path d="M1843.18 447.24L1882.22 446.855L1882.78 446.836L1970.43 445.969L2071.3 444.948V444.447V403.236V402.736L1970.43 407.745L1882.78 412.08L1882.22 412.118L1843.18 414.045V414.449V446.836" stroke="#020203" stroke-miterlimit="10"/>
<path d="M2071.3 361.044V403.236L1970.43 408.188L1882.78 412.503L1882.22 412.523L1843.18 414.449V381.254L1882.22 377.805L1882.78 377.747L1970.43 369.983L2071.3 361.044Z" stroke="#020203" stroke-miterlimit="10"/>
<path d="M2071.3 319.332V361.544L1970.43 370.445L1882.78 378.171L1882.22 378.21L1843.18 381.658V348.463L1882.22 343.473L1882.78 343.415L1970.43 332.221L2071.3 319.332Z" stroke="#020203" stroke-miterlimit="10"/>
<path d="M559.653 845.935L-12.7666 1345.78V1451.84L559.653 888.898V845.935Z" stroke="#020203" stroke-miterlimit="10"/>
<path d="M559.654 803.491L-90.7021 1300.64V1415.29L559.654 846.474V803.491Z" stroke="#020203" stroke-miterlimit="10"/>
<path d="M559.403 761.24L-90.7021 1187.45V1302.1L559.403 804.243V761.24Z" stroke="#020203" stroke-miterlimit="10"/>
<path d="M559.441 717.853L-18.8994 1032.74V1139.49L559.441 760.855V717.853Z" stroke="#020203" stroke-miterlimit="10"/>
<path d="M559.653 674.793L-12.7666 923.404V1029.46L559.653 717.776V674.793Z" stroke="#020203" stroke-miterlimit="10"/>
<path d="M559.653 631.656L-12.7666 816.939V922.999L559.653 674.639V631.656Z" stroke="#020203" stroke-miterlimit="10"/>
<path d="M559.653 588.115L-12.7666 709.472V815.533L559.653 631.098V588.115Z" stroke="#020203" stroke-miterlimit="10"/>
<path d="M-44.917 641.463H311.168L372.537 628.381H50.6856L-44.917 641.463Z" stroke="#020203" stroke-miterlimit="10"/>
<path d="M-167.366 658.205H231.245L311.071 641.232H-43.2583L-167.366 658.205Z" stroke="#020203" stroke-miterlimit="10"/>
<path d="M-326.556 679.976H128.873L231.438 658.167H-167.077L-326.556 679.976Z" stroke="#020203" stroke-miterlimit="10"/>
<path d="M-538.667 708.991H-7.53977L129.124 679.918H-326.17L-538.667 708.991Z" stroke="#020203" stroke-miterlimit="10"/>
<path d="M51.2842 627.957H371.978L422.47 617.245H129.799L51.2842 627.957Z" stroke="#020203" stroke-miterlimit="10"/>
<path d="M277.031 628.381H361.66L552.344 588.115H495.45L277.031 628.381Z" stroke="#020203" stroke-miterlimit="10"/>
<path d="M-131.859 682.442H-9.37154L501.756 588.885H445.344L-131.859 682.442Z" stroke="#020203" stroke-miterlimit="10"/>
<path d="M130.377 617.168H422.836L465.15 608.19H196.201L130.377 617.168Z" stroke="#020203" stroke-miterlimit="10"/>
<path d="M196.434 608.152H465.324L501.313 600.522H252.422L196.434 608.152Z" stroke="#020203" stroke-miterlimit="10"/>
<path d="M252.576 600.907H494.697L526.289 594.28H300.985L252.576 600.907Z" stroke="#020203" stroke-miterlimit="10"/>
<path d="M300.984 594.28H529.007L561.871 587.325H351.669L300.984 594.28Z" stroke="#020203" stroke-miterlimit="10"/>
<path d="M260.444 651.385V1033.18" stroke="#020203" stroke-miterlimit="10"/>
<path d="M311.592 648.148V998.157" stroke="#020203" stroke-miterlimit="10"/>
<path d="M361.37 631.117V962.668" stroke="#020203" stroke-miterlimit="10"/>
<path d="M401.505 621.503V963.824" stroke="#020203" stroke-miterlimit="10"/>
<path d="M436.529 614.933V962.668" stroke="#020203" stroke-miterlimit="10"/>
<path d="M467.33 608.152V962.668" stroke="#020203" stroke-miterlimit="10"/>
<path d="M494.639 602.006V962.668" stroke="#020203" stroke-miterlimit="10"/>
<path d="M519.018 597.208V962.668" stroke="#020203" stroke-miterlimit="10"/>
<path d="M540.387 592.662V939.973" stroke="#020203" stroke-miterlimit="10"/>
<path d="M559.73 588.539V963.555" stroke="#020203" stroke-miterlimit="10"/>
<path d="M540.927 593.336V962.668" stroke="#020203" stroke-miterlimit="10"/>
<path d="M559.653 674.793L-12.7666 923.404V1029.46L559.653 717.776V674.793Z" stroke="#020203" stroke-miterlimit="10"/>
<path d="M232.248 386.417L-12.7666 345.766V634.931L232.248 601.967V386.417Z" stroke="#020203" stroke-miterlimit="10"/>
<path d="M-12.7666 345.766L63.0289 358.327V624.74L-12.7666 634.931V345.766Z" stroke="#020203" stroke-miterlimit="10"/>
<path d="M63.1641 358.366L127.851 369.097V616.012L63.1641 624.72V358.366Z" stroke="#020203" stroke-miterlimit="10"/>
<path d="M127.967 369.116L183.859 378.383V608.479L127.967 615.993V369.116Z" stroke="#020203" stroke-miterlimit="10"/>
<path d="M183.955 378.402L232.711 386.494V601.909L183.955 608.46V378.402Z" stroke="#020203" stroke-miterlimit="10"/>
<path d="M232.71 576.343L-12.7666 600.618V637.725L232.71 603.99V576.343Z" stroke="#020203" stroke-miterlimit="10"/>
<path d="M232.71 548.638L-12.7666 563.435V600.522L232.71 576.285V548.638Z" stroke="#020203" stroke-miterlimit="10"/>
<path d="M232.71 520.934L-12.7666 526.232V563.338L232.71 548.581V520.934Z" stroke="#020203" stroke-miterlimit="10"/>
<path d="M232.71 493.229L-12.7666 489.048V526.155L232.71 520.876V493.229Z" stroke="#020203" stroke-miterlimit="10"/>
<path d="M232.71 465.524L-12.7666 451.864V488.952L232.71 493.171V465.524Z" stroke="#020203" stroke-miterlimit="10"/>
<path d="M232.71 437.819L-12.7666 414.661V451.768L232.71 465.466V437.819Z" stroke="#020203" stroke-miterlimit="10"/>
<path d="M232.71 410.134L-12.7666 377.478V414.565L232.71 437.761V410.134Z" stroke="#020203" stroke-miterlimit="10"/>
<path d="M194.08 1121.38V772.954V732.187V711.033V710.994V689.859V689.821V668.667V668.628" stroke="#020203" stroke-miterlimit="10"/>
<path d="M117.687 1161.46V841.292V796.748V753.765V731.494V731.436V709.164V709.106V686.815V686.777V680.38" stroke="#020203" stroke-miterlimit="10"/>
<path d="M27.5234 700.109V1211.55" stroke="#020203" stroke-miterlimit="10"/>
<path d="M1586.19 943.749H361.737L407.523 910.476H1544.44L1586.19 943.749Z" fill="#751231" stroke="#020203" stroke-width="2" stroke-miterlimit="10"/>
<path d="M1634.45 984.208H308.834L362.199 943.344H1585.79L1634.45 984.208Z" fill="#751231" stroke="#020203" stroke-width="2" stroke-miterlimit="10"/>
<path d="M1691.38 1032.01H246.404L309.374 983.784H1633.96L1691.38 1032.01Z" fill="#751231" stroke="#020203" stroke-width="2" stroke-miterlimit="10"/>
<path d="M1759.59 1089.27H171.631L247.041 1031.53H1690.8L1759.59 1089.27Z" fill="#751231" stroke="#020203" stroke-width="2" stroke-miterlimit="10"/>
<path d="M1842.78 1159.13H80.4258L172.403 1088.69H1758.88L1842.78 1159.13Z" fill="#751231" stroke="#020203" stroke-width="2" stroke-miterlimit="10"/>
<path d="M2252.44 1503.18H-368.851L403.588 911.632H1547.97L2252.44 1503.18Z" stroke="#020203" stroke-width="2" stroke-miterlimit="10"/>
<path d="M-212.766 1503.18H-292.688L436.838 911.632H471.727L-212.766 1503.18Z" stroke="#020203" stroke-width="2" stroke-miterlimit="10"/>
<path d="M-64.203 1503.18H-144.106L501.698 911.632H536.587L-64.203 1503.18Z" stroke="#020203" stroke-width="2" stroke-miterlimit="10"/>
<path d="M15.7197 1503.18H-64.2031L536.587 911.632H571.476L15.7197 1503.18Z" stroke="#020203" stroke-width="2" stroke-miterlimit="10"/>
<path d="M95.6425 1503.18H15.7197L571.476 911.632H606.365L95.6425 1503.18Z" stroke="#020203" stroke-width="2" stroke-miterlimit="10"/>
<path d="M175.565 1503.18H95.6426L606.365 911.632H641.274L175.565 1503.18Z" stroke="#020203" stroke-width="2" stroke-miterlimit="10"/>
<path d="M255.488 1503.18H175.565L641.274 911.632H676.163L255.488 1503.18Z" stroke="#020203" stroke-width="2" stroke-miterlimit="10"/>
<path d="M335.411 1503.18H255.488L676.163 911.632H711.052L335.411 1503.18Z" stroke="#020203" stroke-width="2" stroke-miterlimit="10"/>
<path d="M415.334 1503.18H335.411L711.052 911.632H745.941L415.334 1503.18Z" stroke="#020203" stroke-width="2" stroke-miterlimit="10"/>
<path d="M495.237 1503.18H415.334L745.941 911.632H780.83L495.237 1503.18Z" stroke="#020203" stroke-width="2" stroke-miterlimit="10"/>
<path d="M575.16 1503.18H495.237L780.83 911.632H815.719L575.16 1503.18Z" stroke="#020203" stroke-width="2" stroke-miterlimit="10"/>
<path d="M655.083 1503.18H575.16L815.719 911.632H850.608L655.083 1503.18Z" stroke="#020203" stroke-width="2" stroke-miterlimit="10"/>
<path d="M735.006 1503.18H655.083L850.608 911.632H885.497L735.006 1503.18Z" stroke="#020203" stroke-width="2" stroke-miterlimit="10"/>
<path d="M814.929 1503.18H735.006L885.498 911.632H920.387L814.929 1503.18Z" stroke="#020203" stroke-width="2" stroke-miterlimit="10"/>
<path d="M894.851 1503.18H814.929L920.387 911.632H955.276L894.851 1503.18Z" stroke="#020203" stroke-width="2" stroke-miterlimit="10"/>
<path d="M974.774 1503.18H894.852L955.276 911.632H990.165L974.774 1503.18Z" stroke="#020203" stroke-width="2" stroke-miterlimit="10"/>
<path d="M1054.7 1503.18H974.773L990.164 911.632H1025.07L1054.7 1503.18Z" stroke="#020203" stroke-width="2" stroke-miterlimit="10"/>
<path d="M1134.6 1503.18H1054.7L1025.07 911.632H1059.96L1134.6 1503.18Z" stroke="#020203" stroke-width="2" stroke-miterlimit="10"/>
<path d="M1214.52 1503.18H1134.6L1059.96 911.632H1094.85L1214.52 1503.18Z" stroke="#020203" stroke-width="2" stroke-miterlimit="10"/>
<path d="M1294.45 1503.18H1214.52L1094.85 911.632H1129.74L1294.45 1503.18Z" stroke="#020203" stroke-width="2" stroke-miterlimit="10"/>
<path d="M1374.37 1503.18H1294.45L1129.74 911.632H1164.63L1374.37 1503.18Z" stroke="#020203" stroke-width="2" stroke-miterlimit="10"/>
<path d="M1454.29 1503.18H1374.37L1164.63 911.632H1199.52L1454.29 1503.18Z" stroke="#020203" stroke-width="2" stroke-miterlimit="10"/>
<path d="M1534.21 1503.18H1454.29L1199.52 911.632H1234.41L1534.21 1503.18Z" stroke="#020203" stroke-width="2" stroke-miterlimit="10"/>
<path d="M1614.14 1503.18H1534.21L1234.41 911.632H1269.3L1614.14 1503.18Z" stroke="#020203" stroke-width="2" stroke-miterlimit="10"/>
<path d="M1694.04 1503.18H1614.14L1269.3 911.632H1304.19L1694.04 1503.18Z" stroke="#020203" stroke-width="2" stroke-miterlimit="10"/>
<path d="M1773.96 1503.18H1694.04L1304.19 911.632H1339.07L1773.96 1503.18Z" stroke="#020203" stroke-width="2" stroke-miterlimit="10"/>
<path d="M1853.89 1503.18H1773.96L1339.07 911.632H1373.96L1853.89 1503.18Z" stroke="#020203" stroke-width="2" stroke-miterlimit="10"/>
<path d="M1933.81 1503.18H1853.89L1373.96 911.632H1408.87L1933.81 1503.18Z" stroke="#020203" stroke-width="2" stroke-miterlimit="10"/>
<path d="M2013.73 1503.18H1933.81L1408.87 911.632H1443.76L2013.73 1503.18Z" stroke="#020203" stroke-width="2" stroke-miterlimit="10"/>
<path d="M2093.65 1503.18H2013.73L1443.76 911.632H1478.65L2093.65 1503.18Z" stroke="#020203" stroke-width="2" stroke-miterlimit="10"/>
<path d="M2173.58 1503.18H2093.65L1478.65 911.632H1513.54L2173.58 1503.18Z" stroke="#020203" stroke-width="2" stroke-miterlimit="10"/>
<path d="M2253.5 1503.18H2173.58L1513.54 911.632H1548.43L2253.5 1503.18Z" stroke="#020203" stroke-width="2" stroke-miterlimit="10"/>
</g>
</svg>
